<svg version="1.1" viewBox="0.0 0.0 951.9291338582677 666.4776902887139" fill="none" stroke="none" stroke-linecap="square" stroke-miterlimit="10" xmlns:xlink="http://www.w3.org/1999/xlink" xmlns="http://www.w3.org/2000/svg"><clipPath id="p.0"><path d="m0 0l951.92914 0l0 666.47766l-951.92914 0l0 -666.47766z" clip-rule="nonzero"/></clipPath><g clip-path="url(#p.0)"><path fill="#000000" fill-opacity="0.0" d="m0 0l951.92914 0l0 666.47766l-951.92914 0z" fill-rule="evenodd"/><path fill="#cfe2f3" d="m395.04462 139.71391l0 0c0 -49.148994 39.84314 -88.99213 88.99213 -88.99213l0 0c23.602173 0 46.23767 9.375927 62.92694 26.065186c16.68927 16.689262 26.065186 39.32476 26.065186 62.92694l0 0c0 49.148987 -39.84314 88.99213 -88.99213 88.99213l0 0c-49.148987 0 -88.99213 -39.84314 -88.99213 -88.99213z" fill-rule="evenodd"/><path stroke="#000000" stroke-width="1.0" stroke-linejoin="round" stroke-linecap="butt" d="m395.04462 139.71391l0 0c0 -49.148994 39.84314 -88.99213 88.99213 -88.99213l0 0c23.602173 0 46.23767 9.375927 62.92694 26.065186c16.68927 16.689262 26.065186 39.32476 26.065186 62.92694l0 0c0 49.148987 -39.84314 88.99213 -88.99213 88.99213l0 0c-49.148987 0 -88.99213 -39.84314 -88.99213 -88.99213z" fill-rule="evenodd"/><path fill="#cfe2f3" d="m419.41995 91.56325l129.22836 0l0 96.28346l-129.22836 0z" fill-rule="evenodd"/><path fill="#000000" d="m443.23724 132.42499l-8.875 -22.906258l3.28125 0l5.953125 16.640625q0.71875 2.0000076 1.203125 3.7500076q0.53125 -1.875 1.234375 -3.7500076l6.1875 -16.640625l3.09375 0l-8.96875 22.906258l-3.109375 0zm24.03125 -5.3437576l2.90625 0.359375q-0.6875 2.5468826 -2.546875 3.9531326q-1.859375 1.40625 -4.75 1.40625q-3.640625 0 -5.78125 -2.234375q-2.125 -2.25 -2.125 -6.2968826q0 -4.1875 2.15625 -6.5q2.15625 -2.3125 5.59375 -2.3125q3.328125 0 5.4375 2.265625q2.109375 2.265625 2.109375 6.375q0 0.25 -0.015625 0.75l-12.375 0q0.15625 2.734375 1.546875 4.1875076q1.390625 1.453125 3.46875 1.453125q1.546875 0 2.640625 -0.8125q1.09375 -0.8125 1.734375 -2.5937576zm-9.234375 -4.546875l9.265625 0q-0.1875 -2.09375 -1.0625 -3.140625q-1.34375 -1.625 -3.484375 -1.625q-1.9375 0 -3.265625 1.296875q-1.3125 1.296875 -1.453125 3.46875zm14.546875 4.9375l2.78125 -0.4375q0.234375 1.6718826 1.296875 2.5625076q1.078125 0.890625 3.0 0.890625q1.9375 0 2.875 -0.78125q0.9375 -0.796875 0.9375 -1.8593826q0 -0.953125 -0.828125 -1.5q-0.578125 -0.375 -2.875 -0.953125q-3.09375 -0.78125 -4.296875 -1.34375q-1.1875 -0.578125 -1.8125 -1.578125q-0.609375 -1.015625 -0.609375 -2.234375q0 -1.109375 0.5 -2.046875q0.515625 -0.953125 1.390625 -1.578125q0.65625 -0.484375 1.78125 -0.8125q1.140625 -0.34375 2.4375 -0.34375q1.953125 0 3.421875 0.5625q1.484375 0.5625 2.1875 1.53125q0.703125 0.953125 0.96875 2.5625l-2.75 0.375q-0.1875 -1.28125 -1.09375 -2.0q-0.890625 -0.71875 -2.53125 -0.71875q-1.9375 0 -2.765625 0.640625q-0.828125 0.640625 -0.828125 1.5q0 0.546875 0.34375 0.984375q0.34375 0.453125 1.078125 0.75q0.421875 0.15625 2.484375 0.71875q2.984375 0.796875 4.15625 1.3125q1.1875 0.5 1.859375 1.46875q0.671875 0.96875 0.671875 2.40625q0 1.4062576 -0.828125 2.6562576q-0.8125 1.234375 -2.359375 1.921875q-1.546875 0.671875 -3.5 0.671875q-3.234375 0 -4.9375 -1.34375q-1.6875 -1.34375 -2.15625 -3.9843826zm17.125 11.312508l0 -22.953133l2.5625 0l0 2.15625q0.90625 -1.265625 2.046875 -1.890625q1.140625 -0.640625 2.765625 -0.640625q2.125 0 3.75 1.09375q1.625 1.09375 2.453125 3.09375q0.828125 1.984375 0.828125 4.359375q0 2.546875 -0.921875 4.5937576q-0.90625 2.03125 -2.65625 3.125q-1.734375 1.078125 -3.65625 1.078125q-1.40625 0 -2.53125 -0.59375q-1.109375 -0.59375 -1.828125 -1.5l0 8.078125l-2.8125 0zm2.546875 -14.562508q0 3.203125 1.296875 4.7343826q1.296875 1.53125 3.140625 1.53125q1.875 0 3.203125 -1.578125q1.34375 -1.5937576 1.34375 -4.9218826q0 -3.171875 -1.3125 -4.75q-1.296875 -1.578125 -3.109375 -1.578125q-1.796875 0 -3.1875 1.6875q-1.375 1.671875 -1.375 4.875zm26.609375 2.859375l2.90625 0.359375q-0.6875 2.5468826 -2.546875 3.9531326q-1.859375 1.40625 -4.75 1.40625q-3.640625 0 -5.78125 -2.234375q-2.125 -2.25 -2.125 -6.2968826q0 -4.1875 2.15625 -6.5q2.15625 -2.3125 5.59375 -2.3125q3.328125 0 5.4375 2.265625q2.109375 2.265625 2.109375 6.375q0 0.25 -0.015625 0.75l-12.375 0q0.15625 2.734375 1.546875 4.1875076q1.390625 1.453125 3.46875 1.453125q1.546875 0 2.640625 -0.8125q1.09375 -0.8125 1.734375 -2.5937576zm-9.234375 -4.546875l9.265625 0q-0.1875 -2.09375 -1.0625 -3.140625q-1.34375 -1.625 -3.484375 -1.625q-1.9375 0 -3.265625 1.296875q-1.3125 1.296875 -1.453125 3.46875zm15.640625 9.890633l0 -16.593758l2.53125 0l0 2.515625q0.96875 -1.765625 1.78125 -2.328125q0.828125 -0.5625 1.8125 -0.5625q1.421875 0 2.890625 0.90625l-0.96875 2.609375q-1.03125 -0.609375 -2.0625 -0.609375q-0.921875 0 -1.65625 0.5625q-0.734375 0.546875 -1.046875 1.53125q-0.46875 1.5 -0.46875 3.28125l0 8.687508l-2.8125 0z" fill-rule="nonzero"/><path fill="#000000" d="m430.63568 170.42499l8.796875 -22.90625l3.265625 0l9.375 22.90625l-3.453125 0l-2.671875 -6.9375l-9.578125 0l-2.515625 6.9375l-3.21875 0zm6.609375 -9.40625l7.765625 0l-2.390625 -6.34375q-1.09375 -2.890625 -1.625 -4.75q-0.4375 2.203125 -1.234375 4.375l-2.515625 6.71875zm16.859375 9.40625l0 -16.59375l2.53125 0l0 2.515625q0.96875 -1.765625 1.78125 -2.328125q0.828125 -0.5625 1.8125 -0.5625q1.421875 0 2.890625 0.90625l-0.96875 2.609375q-1.03125 -0.609375 -2.0625 -0.609375q-0.921875 0 -1.65625 0.5625q-0.734375 0.546875 -1.046875 1.53125q-0.46875 1.5 -0.46875 3.28125l0 8.6875l-2.8125 0zm21.515625 -6.078125l2.765625 0.359375q-0.453125 2.859375 -2.328125 4.484375q-1.859375 1.609375 -4.578125 1.609375q-3.40625 0 -5.484375 -2.21875q-2.0625 -2.234375 -2.0625 -6.390625q0 -2.6875 0.890625 -4.703125q0.890625 -2.015625 2.703125 -3.015625q1.828125 -1.015625 3.96875 -1.015625q2.703125 0 4.421875 1.375q1.71875 1.359375 2.203125 3.875l-2.734375 0.421875q-0.390625 -1.671875 -1.390625 -2.515625q-0.984375 -0.84375 -2.390625 -0.84375q-2.125 0 -3.453125 1.53125q-1.328125 1.515625 -1.328125 4.8125q0 3.34375 1.28125 4.859375q1.28125 1.515625 3.34375 1.515625q1.65625 0 2.765625 -1.015625q1.109375 -1.015625 1.40625 -3.125zm5.171875 6.078125l0 -22.90625l2.8125 0l0 8.21875q1.96875 -2.28125 4.96875 -2.28125q1.84375 0 3.203125 0.734375q1.359375 0.71875 1.9375 2.0q0.59375 1.28125 0.59375 3.71875l0 10.515625l-2.8125 0l0 -10.515625q0 -2.109375 -0.921875 -3.0625q-0.90625 -0.96875 -2.578125 -0.96875q-1.25 0 -2.359375 0.65625q-1.09375 0.640625 -1.5625 1.75q-0.46875 1.109375 -0.46875 3.0625l0 9.078125l-2.8125 0zm17.8125 -19.671875l0 -3.234375l2.8125 0l0 3.234375l-2.8125 0zm0 19.671875l0 -16.59375l2.8125 0l0 16.59375l-2.8125 0zm11.703125 0l-6.3125 -16.59375l2.96875 0l3.5625 9.9375q0.578125 1.609375 1.0625 3.34375q0.375 -1.3125 1.046875 -3.15625l3.6875 -10.125l2.890625 0l-6.28125 16.59375l-2.625 0zm22.75 -5.34375l2.90625 0.359375q-0.6875 2.546875 -2.546875 3.953125q-1.859375 1.40625 -4.75 1.40625q-3.640625 0 -5.78125 -2.234375q-2.125 -2.25 -2.125 -6.296875q0 -4.1875 2.15625 -6.5q2.15625 -2.3125 5.59375 -2.3125q3.328125 0 5.4375 2.265625q2.109375 2.265625 2.109375 6.375q0 0.25 -0.015625 0.75l-12.375 0q0.15625 2.734375 1.546875 4.1875q1.390625 1.453125 3.46875 1.453125q1.546875 0 2.640625 -0.8125q1.09375 -0.8125 1.734375 -2.59375zm-9.234375 -4.546875l9.265625 0q-0.1875 -2.09375 -1.0625 -3.140625q-1.34375 -1.625 -3.484375 -1.625q-1.9375 0 -3.265625 1.296875q-1.3125 1.296875 -1.453125 3.46875z" fill-rule="nonzero"/><path fill="#cfe2f3" d="m400.99213 303.59842l158.01575 0l0 112.1575l-158.01575 0z" fill-rule="evenodd"/><path stroke="#000000" stroke-width="1.0" stroke-linejoin="round" stroke-linecap="butt" d="m400.99213 303.59842l158.01575 0l0 112.1575l-158.01575 0z" fill-rule="evenodd"/><path fill="#cfe2f3" d="m408.6299 311.8819l142.74014 0l0 95.590546l-142.74014 0z" fill-rule="evenodd"/><path fill="#000000" d="m439.20312 352.39716l-8.875 -22.90625l3.28125 0l5.953125 16.640625q0.71875 2.0 1.203125 3.75q0.53125 -1.875 1.234375 -3.75l6.1875 -16.640625l3.09375 0l-8.96875 22.90625l-3.109375 0zm24.03125 -5.34375l2.90625 0.359375q-0.6875 2.546875 -2.546875 3.953125q-1.859375 1.40625 -4.75 1.40625q-3.640625 0 -5.78125 -2.234375q-2.125 -2.25 -2.125 -6.296875q0 -4.1875 2.15625 -6.5q2.15625 -2.3125 5.59375 -2.3125q3.328125 0 5.4375 2.265625q2.109375 2.265625 2.109375 6.375q0 0.25 -0.015625 0.75l-12.375 0q0.15625 2.734375 1.546875 4.1875q1.390625 1.453125 3.46875 1.453125q1.546875 0 2.640625 -0.8125q1.09375 -0.8125 1.734375 -2.59375zm-9.234375 -4.546875l9.265625 0q-0.1875 -2.09375 -1.0625 -3.140625q-1.34375 -1.625 -3.484375 -1.625q-1.9375 0 -3.265625 1.296875q-1.3125 1.296875 -1.453125 3.46875zm14.546875 4.9375l2.78125 -0.4375q0.234375 1.671875 1.296875 2.5625q1.078125 0.890625 3.0 0.890625q1.9375 0 2.875 -0.78125q0.9375 -0.796875 0.9375 -1.859375q0 -0.953125 -0.828125 -1.5q-0.578125 -0.375 -2.875 -0.953125q-3.09375 -0.78125 -4.296875 -1.34375q-1.1875 -0.578125 -1.8125 -1.578125q-0.609375 -1.015625 -0.609375 -2.234375q0 -1.109375 0.5 -2.046875q0.515625 -0.953125 1.390625 -1.578125q0.65625 -0.484375 1.78125 -0.8125q1.140625 -0.34375 2.4375 -0.34375q1.953125 0 3.421875 0.5625q1.484375 0.5625 2.1875 1.53125q0.703125 0.953125 0.96875 2.5625l-2.75 0.375q-0.1875 -1.28125 -1.09375 -2.0q-0.890625 -0.71875 -2.53125 -0.71875q-1.9375 0 -2.765625 0.640625q-0.828125 0.640625 -0.828125 1.5q0 0.546875 0.34375 0.984375q0.34375 0.453125 1.078125 0.75q0.421875 0.15625 2.484375 0.71875q2.984375 0.796875 4.15625 1.3125q1.1875 0.5 1.859375 1.46875q0.671875 0.96875 0.671875 2.40625q0 1.40625 -0.828125 2.65625q-0.8125 1.234375 -2.359375 1.921875q-1.546875 0.671875 -3.5 0.671875q-3.234375 0 -4.9375 -1.34375q-1.6875 -1.34375 -2.15625 -3.984375zm17.125 11.3125l0 -22.953125l2.5625 0l0 2.15625q0.90625 -1.265625 2.046875 -1.890625q1.140625 -0.640625 2.765625 -0.640625q2.125 0 3.75 1.09375q1.625 1.09375 2.453125 3.09375q0.828125 1.984375 0.828125 4.359375q0 2.546875 -0.921875 4.59375q-0.90625 2.03125 -2.65625 3.125q-1.734375 1.078125 -3.65625 1.078125q-1.40625 0 -2.53125 -0.59375q-1.109375 -0.59375 -1.828125 -1.5l0 8.078125l-2.8125 0zm2.546875 -14.5625q0 3.203125 1.296875 4.734375q1.296875 1.53125 3.140625 1.53125q1.875 0 3.203125 -1.578125q1.34375 -1.59375 1.34375 -4.921875q0 -3.171875 -1.3125 -4.75q-1.296875 -1.578125 -3.109375 -1.578125q-1.796875 0 -3.1875 1.6875q-1.375 1.671875 -1.375 4.875zm26.609375 2.859375l2.90625 0.359375q-0.6875 2.546875 -2.546875 3.953125q-1.859375 1.40625 -4.75 1.40625q-3.640625 0 -5.78125 -2.234375q-2.125 -2.25 -2.125 -6.296875q0 -4.1875 2.15625 -6.5q2.15625 -2.3125 5.59375 -2.3125q3.328125 0 5.4375 2.265625q2.109375 2.265625 2.109375 6.375q0 0.25 -0.015625 0.75l-12.375 0q0.15625 2.734375 1.546875 4.1875q1.390625 1.453125 3.46875 1.453125q1.546875 0 2.640625 -0.8125q1.09375 -0.8125 1.734375 -2.59375zm-9.234375 -4.546875l9.265625 0q-0.1875 -2.09375 -1.0625 -3.140625q-1.34375 -1.625 -3.484375 -1.625q-1.9375 0 -3.265625 1.296875q-1.3125 1.296875 -1.453125 3.46875zm15.640625 9.890625l0 -16.59375l2.53125 0l0 2.515625q0.96875 -1.765625 1.78125 -2.328125q0.828125 -0.5625 1.8125 -0.5625q1.421875 0 2.890625 0.90625l-0.96875 2.609375q-1.03125 -0.609375 -2.0625 -0.609375q-0.921875 0 -1.65625 0.5625q-0.734375 0.546875 -1.046875 1.53125q-0.46875 1.5 -0.46875 3.28125l0 8.6875l-2.8125 0z" fill-rule="nonzero"/><path fill="#000000" d="m434.3125 383.03778l2.859375 -0.25q0.203125 1.71875 0.9375 2.828125q0.75 1.09375 2.3125 1.78125q1.5625 0.671875 3.515625 0.671875q1.734375 0 3.0625 -0.515625q1.328125 -0.515625 1.96875 -1.40625q0.65625 -0.90625 0.65625 -1.96875q0 -1.078125 -0.625 -1.875q-0.625 -0.8125 -2.0625 -1.359375q-0.921875 -0.359375 -4.078125 -1.109375q-3.15625 -0.765625 -4.421875 -1.4375q-1.640625 -0.859375 -2.453125 -2.125q-0.796875 -1.28125 -0.796875 -2.859375q0 -1.734375 0.984375 -3.234375q0.984375 -1.515625 2.875 -2.296875q1.890625 -0.78125 4.203125 -0.78125q2.546875 0 4.484375 0.828125q1.953125 0.8125 3.0 2.40625q1.046875 1.59375 1.125 3.609375l-2.90625 0.21875q-0.234375 -2.171875 -1.59375 -3.28125q-1.34375 -1.109375 -3.984375 -1.109375q-2.75 0 -4.015625 1.015625q-1.25 1.0 -1.25 2.421875q0 1.234375 0.890625 2.03125q0.875 0.796875 4.5625 1.640625q3.703125 0.828125 5.078125 1.453125q2.0 0.921875 2.953125 2.34375q0.953125 1.40625 0.953125 3.25q0 1.828125 -1.046875 3.453125q-1.046875 1.609375 -3.015625 2.515625q-1.953125 0.890625 -4.40625 0.890625q-3.109375 0 -5.21875 -0.90625q-2.09375 -0.90625 -3.296875 -2.71875q-1.1875 -1.828125 -1.25 -4.125zm33.375 2.015625l2.90625 0.359375q-0.6875 2.546875 -2.546875 3.953125q-1.859375 1.40625 -4.75 1.40625q-3.640625 0 -5.78125 -2.234375q-2.125 -2.25 -2.125 -6.296875q0 -4.1875 2.15625 -6.5q2.15625 -2.3125 5.59375 -2.3125q3.328125 0 5.4375 2.265625q2.109375 2.265625 2.109375 6.375q0 0.25 -0.015625 0.75l-12.375 0q0.15625 2.734375 1.546875 4.1875q1.390625 1.453125 3.46875 1.453125q1.546875 0 2.640625 -0.8125q1.09375 -0.8125 1.734375 -2.59375zm-9.234375 -4.546875l9.265625 0q-0.1875 -2.09375 -1.0625 -3.140625q-1.34375 -1.625 -3.484375 -1.625q-1.9375 0 -3.265625 1.296875q-1.3125 1.296875 -1.453125 3.46875zm15.640625 9.890625l0 -16.59375l2.53125 0l0 2.515625q0.96875 -1.765625 1.78125 -2.328125q0.828125 -0.5625 1.8125 -0.5625q1.421875 0 2.890625 0.90625l-0.96875 2.609375q-1.03125 -0.609375 -2.0625 -0.609375q-0.921875 0 -1.65625 0.5625q-0.734375 0.546875 -1.046875 1.53125q-0.46875 1.5 -0.46875 3.28125l0 8.6875l-2.8125 0zm15.296875 0l-6.3125 -16.59375l2.96875 0l3.5625 9.9375q0.578125 1.609375 1.0625 3.34375q0.375 -1.3125 1.046875 -3.15625l3.6875 -10.125l2.890625 0l-6.28125 16.59375l-2.625 0zm22.75 -5.34375l2.90625 0.359375q-0.6875 2.546875 -2.546875 3.953125q-1.859375 1.40625 -4.75 1.40625q-3.640625 0 -5.78125 -2.234375q-2.125 -2.25 -2.125 -6.296875q0 -4.1875 2.15625 -6.5q2.15625 -2.3125 5.59375 -2.3125q3.328125 0 5.4375 2.265625q2.109375 2.265625 2.109375 6.375q0 0.25 -0.015625 0.75l-12.375 0q0.15625 2.734375 1.546875 4.1875q1.390625 1.453125 3.46875 1.453125q1.546875 0 2.640625 -0.8125q1.09375 -0.8125 1.734375 -2.59375zm-9.234375 -4.546875l9.265625 0q-0.1875 -2.09375 -1.0625 -3.140625q-1.34375 -1.625 -3.484375 -1.625q-1.9375 0 -3.265625 1.296875q-1.3125 1.296875 -1.453125 3.46875zm15.640625 9.890625l0 -16.59375l2.53125 0l0 2.515625q0.96875 -1.765625 1.78125 -2.328125q0.828125 -0.5625 1.8125 -0.5625q1.421875 0 2.890625 0.90625l-0.96875 2.609375q-1.03125 -0.609375 -2.0625 -0.609375q-0.921875 0 -1.65625 0.5625q-0.734375 0.546875 -1.046875 1.53125q-0.46875 1.5 -0.46875 3.28125l0 8.6875l-2.8125 0z" fill-rule="nonzero"/><path fill="#cfe2f3" d="m256.99213 503.59842l158.01575 0l0 112.1575l-158.01575 0z" fill-rule="evenodd"/><path stroke="#000000" stroke-width="1.0" stroke-linejoin="round" stroke-linecap="butt" d="m256.99213 503.59842l158.01575 0l0 112.1575l-158.01575 0z" fill-rule="evenodd"/><path fill="#cfe2f3" d="m264.6299 511.8819l142.74017 0l0 95.590515l-142.74017 0z" fill-rule="evenodd"/><path fill="#000000" d="m295.20312 552.39716l-8.875 -22.90625l3.28125 0l5.953125 16.640625q0.71875 2.0 1.203125 3.75q0.53125 -1.875 1.234375 -3.75l6.1875 -16.640625l3.09375 0l-8.96875 22.90625l-3.109375 0zm24.03125 -5.34375l2.90625 0.359375q-0.6875 2.546875 -2.546875 3.953125q-1.859375 1.40625 -4.75 1.40625q-3.640625 0 -5.78125 -2.234375q-2.125 -2.25 -2.125 -6.296875q0 -4.1875 2.15625 -6.5q2.15625 -2.3125 5.59375 -2.3125q3.328125 0 5.4375 2.265625q2.109375 2.265625 2.109375 6.375q0 0.25 -0.015625 0.75l-12.375 0q0.15625 2.734375 1.546875 4.1875q1.390625 1.453125 3.46875 1.453125q1.546875 0 2.640625 -0.8125q1.09375 -0.8125 1.734375 -2.59375zm-9.234375 -4.546875l9.265625 0q-0.1875 -2.09375 -1.0625 -3.140625q-1.34375 -1.625 -3.484375 -1.625q-1.9375 0 -3.265625 1.296875q-1.3125 1.296875 -1.453125 3.46875zm14.546875 4.9375l2.78125 -0.4375q0.234375 1.671875 1.296875 2.5625q1.078125 0.890625 3.0 0.890625q1.9375 0 2.875 -0.78125q0.9375 -0.796875 0.9375 -1.859375q0 -0.953125 -0.828125 -1.5q-0.578125 -0.375 -2.875 -0.953125q-3.09375 -0.78125 -4.296875 -1.34375q-1.1875 -0.578125 -1.8125 -1.578125q-0.609375 -1.015625 -0.609375 -2.234375q0 -1.109375 0.5 -2.046875q0.515625 -0.953125 1.390625 -1.578125q0.65625 -0.484375 1.78125 -0.8125q1.140625 -0.34375 2.4375 -0.34375q1.953125 0 3.421875 0.5625q1.484375 0.5625 2.1875 1.53125q0.703125 0.953125 0.96875 2.5625l-2.75 0.375q-0.1875 -1.28125 -1.09375 -2.0q-0.890625 -0.71875 -2.53125 -0.71875q-1.9375 0 -2.765625 0.640625q-0.828125 0.640625 -0.828125 1.5q0 0.546875 0.34375 0.984375q0.34375 0.453125 1.078125 0.75q0.421875 0.15625 2.484375 0.71875q2.984375 0.796875 4.15625 1.3125q1.1875 0.5 1.859375 1.46875q0.671875 0.96875 0.671875 2.40625q0 1.40625 -0.828125 2.65625q-0.8125 1.234375 -2.359375 1.921875q-1.546875 0.671875 -3.5 0.671875q-3.234375 0 -4.9375 -1.34375q-1.6875 -1.34375 -2.15625 -3.984375zm17.125 11.3125l0 -22.953125l2.5625 0l0 2.15625q0.90625 -1.265625 2.046875 -1.890625q1.140625 -0.640625 2.765625 -0.640625q2.125 0 3.75 1.09375q1.625 1.09375 2.453125 3.09375q0.828125 1.984375 0.828125 4.359375q0 2.546875 -0.921875 4.59375q-0.90625 2.03125 -2.65625 3.125q-1.734375 1.078125 -3.65625 1.078125q-1.40625 0 -2.53125 -0.59375q-1.109375 -0.59375 -1.828125 -1.5l0 8.078125l-2.8125 0zm2.546875 -14.5625q0 3.203125 1.296875 4.734375q1.296875 1.53125 3.140625 1.53125q1.875 0 3.203125 -1.578125q1.34375 -1.59375 1.34375 -4.921875q0 -3.171875 -1.3125 -4.75q-1.296875 -1.578125 -3.109375 -1.578125q-1.796875 0 -3.1875 1.6875q-1.375 1.671875 -1.375 4.875zm26.609375 2.859375l2.90625 0.359375q-0.6875 2.546875 -2.546875 3.953125q-1.859375 1.40625 -4.75 1.40625q-3.640625 0 -5.78125 -2.234375q-2.125 -2.25 -2.125 -6.296875q0 -4.1875 2.15625 -6.5q2.15625 -2.3125 5.59375 -2.3125q3.328125 0 5.4375 2.265625q2.109375 2.265625 2.109375 6.375q0 0.25 -0.015625 0.75l-12.375 0q0.15625 2.734375 1.546875 4.1875q1.390625 1.453125 3.46875 1.453125q1.546875 0 2.640625 -0.8125q1.09375 -0.8125 1.734375 -2.59375zm-9.234375 -4.546875l9.265625 0q-0.1875 -2.09375 -1.0625 -3.140625q-1.34375 -1.625 -3.484375 -1.625q-1.9375 0 -3.265625 1.296875q-1.3125 1.296875 -1.453125 3.46875zm15.640625 9.890625l0 -16.59375l2.53125 0l0 2.515625q0.96875 -1.765625 1.78125 -2.328125q0.828125 -0.5625 1.8125 -0.5625q1.421875 0 2.890625 0.90625l-0.96875 2.609375q-1.03125 -0.609375 -2.0625 -0.609375q-0.921875 0 -1.65625 0.5625q-0.734375 0.546875 -1.046875 1.53125q-0.46875 1.5 -0.46875 3.28125l0 8.6875l-2.8125 0z" fill-rule="nonzero"/><path fill="#000000" d="m313.90625 582.3659l3.03125 0.765625q-0.953125 3.734375 -3.4375 5.703125q-2.46875 1.953125 -6.046875 1.953125q-3.703125 0 -6.03125 -1.5q-2.3125 -1.515625 -3.53125 -4.375q-1.203125 -2.859375 -1.203125 -6.140625q0 -3.578125 1.359375 -6.234375q1.375 -2.671875 3.890625 -4.046875q2.53125 -1.390625 5.5625 -1.390625q3.4375 0 5.78125 1.75q2.34375 1.75 3.265625 4.921875l-2.984375 0.703125q-0.796875 -2.5 -2.3125 -3.640625q-1.515625 -1.140625 -3.8125 -1.140625q-2.640625 0 -4.421875 1.265625q-1.765625 1.265625 -2.484375 3.40625q-0.71875 2.125 -0.71875 4.390625q0 2.921875 0.84375 5.109375q0.859375 2.171875 2.65625 3.25q1.796875 1.078125 3.890625 1.078125q2.546875 0 4.3125 -1.46875q1.765625 -1.46875 2.390625 -4.359375zm6.34375 8.03125l0 -22.90625l2.8125 0l0 22.90625l-2.8125 0zm7.1875 -19.671875l0 -3.234375l2.8125 0l0 3.234375l-2.8125 0zm0 19.671875l0 -16.59375l2.8125 0l0 16.59375l-2.8125 0zm18.453125 -5.34375l2.90625 0.359375q-0.6875 2.546875 -2.546875 3.953125q-1.859375 1.40625 -4.75 1.40625q-3.640625 0 -5.78125 -2.234375q-2.125 -2.25 -2.125 -6.296875q0 -4.1875 2.15625 -6.5q2.15625 -2.3125 5.59375 -2.3125q3.328125 0 5.4375 2.265625q2.109375 2.265625 2.109375 6.375q0 0.25 -0.015625 0.75l-12.375 0q0.15625 2.734375 1.546875 4.1875q1.390625 1.453125 3.46875 1.453125q1.546875 0 2.640625 -0.8125q1.09375 -0.8125 1.734375 -2.59375zm-9.234375 -4.546875l9.265625 0q-0.1875 -2.09375 -1.0625 -3.140625q-1.34375 -1.625 -3.484375 -1.625q-1.9375 0 -3.265625 1.296875q-1.3125 1.296875 -1.453125 3.46875zm15.671875 9.890625l0 -16.59375l2.53125 0l0 2.359375q1.828125 -2.734375 5.28125 -2.734375q1.5 0 2.75 0.546875q1.265625 0.53125 1.890625 1.40625q0.625 0.875 0.875 2.078125q0.15625 0.78125 0.15625 2.734375l0 10.203125l-2.8125 0l0 -10.09375q0 -1.71875 -0.328125 -2.5625q-0.328125 -0.859375 -1.171875 -1.359375q-0.828125 -0.515625 -1.953125 -0.515625q-1.796875 0 -3.109375 1.140625q-1.296875 1.140625 -1.296875 4.328125l0 9.0625l-2.8125 0zm23.9375 -2.515625l0.40625 2.484375q-1.1875 0.25 -2.125 0.25q-1.53125 0 -2.375 -0.484375q-0.84375 -0.484375 -1.1875 -1.265625q-0.34375 -0.796875 -0.34375 -3.328125l0 -9.546875l-2.0625 0l0 -2.1875l2.0625 0l0 -4.109375l2.796875 -1.6875l0 5.796875l2.828125 0l0 2.1875l-2.828125 0l0 9.703125q0 1.203125 0.140625 1.546875q0.15625 0.34375 0.484375 0.546875q0.34375 0.203125 0.96875 0.203125q0.46875 0 1.234375 -0.109375z" fill-rule="nonzero"/><path fill="#cfe2f3" d="m544.9921 503.59842l158.01575 0l0 112.1575l-158.01575 0z" fill-rule="evenodd"/><path stroke="#000000" stroke-width="1.0" stroke-linejoin="round" stroke-linecap="butt" d="m544.9921 503.59842l158.01575 0l0 112.1575l-158.01575 0z" fill-rule="evenodd"/><path fill="#cfe2f3" d="m552.62994 511.8819l142.74011 0l0 95.590515l-142.74011 0z" fill-rule="evenodd"/><path fill="#000000" d="m583.2031 552.39716l-8.875 -22.90625l3.28125 0l5.953125 16.640625q0.71875 2.0 1.203125 3.75q0.53125 -1.875 1.234375 -3.75l6.1875 -16.640625l3.09375 0l-8.96875 22.90625l-3.109375 0zm24.03125 -5.34375l2.90625 0.359375q-0.6875 2.546875 -2.546875 3.953125q-1.859375 1.40625 -4.75 1.40625q-3.640625 0 -5.78125 -2.234375q-2.125 -2.25 -2.125 -6.296875q0 -4.1875 2.15625 -6.5q2.15625 -2.3125 5.59375 -2.3125q3.328125 0 5.4375 2.265625q2.109375 2.265625 2.109375 6.375q0 0.25 -0.015625 0.75l-12.375 0q0.15625 2.734375 1.546875 4.1875q1.390625 1.453125 3.46875 1.453125q1.546875 0 2.640625 -0.8125q1.09375 -0.8125 1.734375 -2.59375zm-9.234375 -4.546875l9.265625 0q-0.1875 -2.09375 -1.0625 -3.140625q-1.34375 -1.625 -3.484375 -1.625q-1.9375 0 -3.265625 1.296875q-1.3125 1.296875 -1.453125 3.46875zm14.546875 4.9375l2.78125 -0.4375q0.234375 1.671875 1.296875 2.5625q1.078125 0.890625 3.0 0.890625q1.9375 0 2.875 -0.78125q0.9375 -0.796875 0.9375 -1.859375q0 -0.953125 -0.828125 -1.5q-0.578125 -0.375 -2.875 -0.953125q-3.09375 -0.78125 -4.296875 -1.34375q-1.1875 -0.578125 -1.8125 -1.578125q-0.609375 -1.015625 -0.609375 -2.234375q0 -1.109375 0.5 -2.046875q0.515625 -0.953125 1.390625 -1.578125q0.65625 -0.484375 1.78125 -0.8125q1.140625 -0.34375 2.4375 -0.34375q1.953125 0 3.421875 0.5625q1.484375 0.5625 2.1875 1.53125q0.703125 0.953125 0.96875 2.5625l-2.75 0.375q-0.1875 -1.28125 -1.09375 -2.0q-0.890625 -0.71875 -2.53125 -0.71875q-1.9375 0 -2.765625 0.640625q-0.828125 0.640625 -0.828125 1.5q0 0.546875 0.34375 0.984375q0.34375 0.453125 1.078125 0.75q0.421875 0.15625 2.484375 0.71875q2.984375 0.796875 4.15625 1.3125q1.1875 0.5 1.859375 1.46875q0.671875 0.96875 0.671875 2.40625q0 1.40625 -0.828125 2.65625q-0.8125 1.234375 -2.359375 1.921875q-1.546875 0.671875 -3.5 0.671875q-3.234375 0 -4.9375 -1.34375q-1.6875 -1.34375 -2.15625 -3.984375zm17.125 11.3125l0 -22.953125l2.5625 0l0 2.15625q0.90625 -1.265625 2.046875 -1.890625q1.140625 -0.640625 2.765625 -0.640625q2.125 0 3.75 1.09375q1.625 1.09375 2.453125 3.09375q0.828125 1.984375 0.828125 4.359375q0 2.546875 -0.921875 4.59375q-0.90625 2.03125 -2.65625 3.125q-1.734375 1.078125 -3.65625 1.078125q-1.40625 0 -2.53125 -0.59375q-1.109375 -0.59375 -1.828125 -1.5l0 8.078125l-2.8125 0zm2.546875 -14.5625q0 3.203125 1.296875 4.734375q1.296875 1.53125 3.140625 1.53125q1.875 0 3.203125 -1.578125q1.34375 -1.59375 1.34375 -4.921875q0 -3.171875 -1.3125 -4.75q-1.296875 -1.578125 -3.109375 -1.578125q-1.796875 0 -3.1875 1.6875q-1.375 1.671875 -1.375 4.875zm26.609375 2.859375l2.90625 0.359375q-0.6875 2.546875 -2.546875 3.953125q-1.859375 1.40625 -4.75 1.40625q-3.640625 0 -5.78125 -2.234375q-2.125 -2.25 -2.125 -6.296875q0 -4.1875 2.15625 -6.5q2.15625 -2.3125 5.59375 -2.3125q3.328125 0 5.4375 2.265625q2.109375 2.265625 2.109375 6.375q0 0.25 -0.015625 0.75l-12.375 0q0.15625 2.734375 1.546875 4.1875q1.390625 1.453125 3.46875 1.453125q1.546875 0 2.640625 -0.8125q1.09375 -0.8125 1.734375 -2.59375zm-9.234375 -4.546875l9.265625 0q-0.1875 -2.09375 -1.0625 -3.140625q-1.34375 -1.625 -3.484375 -1.625q-1.9375 0 -3.265625 1.296875q-1.3125 1.296875 -1.453125 3.46875zm15.640625 9.890625l0 -16.59375l2.53125 0l0 2.515625q0.96875 -1.765625 1.78125 -2.328125q0.828125 -0.5625 1.8125 -0.5625q1.421875 0 2.890625 0.90625l-0.96875 2.609375q-1.03125 -0.609375 -2.0625 -0.609375q-0.921875 0 -1.65625 0.5625q-0.734375 0.546875 -1.046875 1.53125q-0.46875 1.5 -0.46875 3.28125l0 8.6875l-2.8125 0z" fill-rule="nonzero"/><path fill="#000000" d="m601.90625 582.3659l3.03125 0.765625q-0.953125 3.734375 -3.4375 5.703125q-2.46875 1.953125 -6.046875 1.953125q-3.703125 0 -6.03125 -1.5q-2.3125 -1.515625 -3.53125 -4.375q-1.203125 -2.859375 -1.203125 -6.140625q0 -3.578125 1.359375 -6.234375q1.375 -2.671875 3.890625 -4.046875q2.53125 -1.390625 5.5625 -1.390625q3.4375 0 5.78125 1.75q2.34375 1.75 3.265625 4.921875l-2.984375 0.703125q-0.796875 -2.5 -2.3125 -3.640625q-1.515625 -1.140625 -3.8125 -1.140625q-2.640625 0 -4.421875 1.265625q-1.765625 1.265625 -2.484375 3.40625q-0.71875 2.125 -0.71875 4.390625q0 2.921875 0.84375 5.109375q0.859375 2.171875 2.65625 3.25q1.796875 1.078125 3.890625 1.078125q2.546875 0 4.3125 -1.46875q1.765625 -1.46875 2.390625 -4.359375zm6.34375 8.03125l0 -22.90625l2.8125 0l0 22.90625l-2.8125 0zm7.1875 -19.671875l0 -3.234375l2.8125 0l0 3.234375l-2.8125 0zm0 19.671875l0 -16.59375l2.8125 0l0 16.59375l-2.8125 0zm18.453125 -5.34375l2.90625 0.359375q-0.6875 2.546875 -2.546875 3.953125q-1.859375 1.40625 -4.75 1.40625q-3.640625 0 -5.78125 -2.234375q-2.125 -2.25 -2.125 -6.296875q0 -4.1875 2.15625 -6.5q2.15625 -2.3125 5.59375 -2.3125q3.328125 0 5.4375 2.265625q2.109375 2.265625 2.109375 6.375q0 0.25 -0.015625 0.75l-12.375 0q0.15625 2.734375 1.546875 4.1875q1.390625 1.453125 3.46875 1.453125q1.546875 0 2.640625 -0.8125q1.09375 -0.8125 1.734375 -2.59375zm-9.234375 -4.546875l9.265625 0q-0.1875 -2.09375 -1.0625 -3.140625q-1.34375 -1.625 -3.484375 -1.625q-1.9375 0 -3.265625 1.296875q-1.3125 1.296875 -1.453125 3.46875zm15.671875 9.890625l0 -16.59375l2.53125 0l0 2.359375q1.828125 -2.734375 5.28125 -2.734375q1.5 0 2.75 0.546875q1.265625 0.53125 1.890625 1.40625q0.625 0.875 0.875 2.078125q0.15625 0.78125 0.15625 2.734375l0 10.203125l-2.8125 0l0 -10.09375q0 -1.71875 -0.328125 -2.5625q-0.328125 -0.859375 -1.171875 -1.359375q-0.828125 -0.515625 -1.953125 -0.515625q-1.796875 0 -3.109375 1.140625q-1.296875 1.140625 -1.296875 4.328125l0 9.0625l-2.8125 0zm23.9375 -2.515625l0.40625 2.484375q-1.1875 0.25 -2.125 0.25q-1.53125 0 -2.375 -0.484375q-0.84375 -0.484375 -1.1875 -1.265625q-0.34375 -0.796875 -0.34375 -3.328125l0 -9.546875l-2.0625 0l0 -2.1875l2.0625 0l0 -4.109375l2.796875 -1.6875l0 5.796875l2.828125 0l0 2.1875l-2.828125 0l0 9.703125q0 1.203125 0.140625 1.546875q0.15625 0.34375 0.484375 0.546875q0.34375 0.203125 0.96875 0.203125q0.46875 0 1.234375 -0.109375z" fill-rule="nonzero"/><path fill="#000000" fill-opacity="0.0" d="m440.4882 525.2703l79.02365 0l0 54.80316l-79.02365 0z" fill-rule="evenodd"/><path fill="#000000" d="m469.5703 564.3919l0 -3.203125l3.203125 0l0 3.203125l-3.203125 0zm8.890625 0l0 -3.203125l3.203125 0l0 3.203125l-3.203125 0zm8.890625 0l0 -3.203125l3.203125 0l0 3.203125l-3.203125 0z" fill-rule="nonzero"/><path fill="#000000" fill-opacity="0.0" d="m484.03674 303.60367l0 -74.89763" fill-rule="evenodd"/><path stroke="#000000" stroke-width="1.0" stroke-linejoin="round" stroke-linecap="butt" d="m484.03674 297.60367l0 -62.89763" fill-rule="evenodd"/><path fill="#000000" stroke="#000000" stroke-width="1.0" stroke-linecap="butt" d="m482.385 297.60367l1.6517334 4.5381165l1.6517334 -4.5381165z" fill-rule="evenodd"/><path fill="#000000" stroke="#000000" stroke-width="1.0" stroke-linecap="butt" d="m485.68848 234.70604l-1.6517334 -4.538101l-1.6517334 4.538101z" fill-rule="evenodd"/><path fill="#000000" fill-opacity="0.0" d="m336.0 503.59842l144.0 -87.8425" fill-rule="evenodd"/><path stroke="#000000" stroke-width="1.0" stroke-linejoin="round" stroke-linecap="butt" d="m341.1222 500.4738l133.75565 -81.59326" fill-rule="evenodd"/><path fill="#000000" stroke="#000000" stroke-width="1.0" stroke-linecap="butt" d="m340.26202 499.06372l-3.0140076 3.7733765l4.7343445 -0.95321655z" fill-rule="evenodd"/><path fill="#000000" stroke="#000000" stroke-width="1.0" stroke-linecap="butt" d="m475.73798 420.29062l3.0140076 -3.773407l-4.7343445 0.9532471z" fill-rule="evenodd"/><path fill="#000000" fill-opacity="0.0" d="m624.0 503.59842l-144.0 -87.8425" fill-rule="evenodd"/><path stroke="#000000" stroke-width="1.0" stroke-linejoin="round" stroke-linecap="butt" d="m618.8778 500.4738l-133.75565 -81.59326" fill-rule="evenodd"/><path fill="#000000" stroke="#000000" stroke-width="1.0" stroke-linecap="butt" d="m618.01764 501.88388l4.734314 0.95321655l-3.013977 -3.7733765z" fill-rule="evenodd"/><path fill="#000000" stroke="#000000" stroke-width="1.0" stroke-linecap="butt" d="m485.98236 417.47046l-4.7343445 -0.9532471l3.0140076 3.773407z" fill-rule="evenodd"/></g></svg>