<?xml version="1.0" encoding="UTF-8"?>
<svg width="700pt" height="700pt" version="1.1" viewBox="0 0 700 700" xmlns="http://www.w3.org/2000/svg" xmlns:xlink="http://www.w3.org/1999/xlink">
 <defs>
  <symbol id="e" overflow="visible">
   <path d="m39.078-2.3281c-2.0117 1.043-4.1094 1.8281-6.2969 2.3594s-4.4648 0.79688-6.8281 0.79688c-7.0859 0-12.699-1.9766-16.844-5.9375-4.1367-3.957-6.2031-9.3281-6.2031-16.109 0-6.7891 2.0664-12.164 6.2031-16.125 4.1445-3.9688 9.7578-5.9531 16.844-5.9531 2.3633 0 4.6406 0.26562 6.8281 0.79688s4.2852 1.3242 6.2969 2.375v8.7969c-2.0312-1.3828-4.0391-2.3984-6.0156-3.0469-1.9688-0.64453-4.0469-0.96875-6.2344-0.96875-3.9062 0-6.9844 1.2578-9.2344 3.7656-2.2422 2.5-3.3594 5.9531-3.3594 10.359 0 4.3867 1.1172 7.8359 3.3594 10.344 2.25 2.5 5.3281 3.75 9.2344 3.75 2.1875 0 4.2656-0.32031 6.2344-0.96875 1.9766-0.64453 3.9844-1.6602 6.0156-3.0469z"/>
  </symbol>
  <symbol id="a" overflow="visible">
   <path d="m16.031-40.953v9.0625h10.516v7.2812h-10.516v13.531c0 1.4805 0.28906 2.4805 0.875 3 0.59375 0.52344 1.7656 0.78125 3.5156 0.78125h5.2344v7.2969h-8.7344c-4.0312 0-6.8867-0.83594-8.5625-2.5156-1.6797-1.6875-2.5156-4.5391-2.5156-8.5625v-13.531h-5.0781v-7.2812h5.0781v-9.0625z"/>
  </symbol>
  <symbol id="d" overflow="visible">
   <path d="m26.594-27.234v-17.078h10.266v44.312h-10.266v-4.6094c-1.3984 1.875-2.9453 3.25-4.6406 4.125-1.6875 0.875-3.6406 1.3125-5.8594 1.3125-3.9297 0-7.1562-1.5625-9.6875-4.6875-2.5234-3.125-3.7812-7.1445-3.7812-12.062 0-4.9141 1.2578-8.9375 3.7812-12.062 2.5312-3.125 5.7578-4.6875 9.6875-4.6875 2.1953 0 4.1445 0.44531 5.8438 1.3281 1.707 0.88672 3.2578 2.2578 4.6562 4.1094zm-6.7188 20.656c2.1875 0 3.8516-0.79688 5-2.3906 1.1445-1.5938 1.7188-3.9102 1.7188-6.9531 0-3.0391-0.57422-5.3594-1.7188-6.9531-1.1484-1.5938-2.8125-2.3906-5-2.3906-2.168 0-3.8242 0.79688-4.9688 2.3906-1.1484 1.5938-1.7188 3.9141-1.7188 6.9531 0 3.043 0.57031 5.3594 1.7188 6.9531 1.1445 1.5938 2.8008 2.3906 4.9688 2.3906z"/>
  </symbol>
  <symbol id="c" overflow="visible">
   <path d="m21.875-6.5781c2.1758 0 3.8359-0.79688 4.9844-2.3906 1.1562-1.5938 1.7344-3.9102 1.7344-6.9531 0-3.0391-0.57812-5.3594-1.7344-6.9531-1.1484-1.5938-2.8086-2.3906-4.9844-2.3906-2.1875 0-3.8672 0.80469-5.0312 2.4062-1.168 1.6055-1.75 3.918-1.75 6.9375 0 3.0234 0.58203 5.3359 1.75 6.9375 1.1641 1.6055 2.8438 2.4062 5.0312 2.4062zm-6.7812-20.656c1.4062-1.8516 2.9609-3.2227 4.6719-4.1094 1.707-0.88281 3.6719-1.3281 5.8906-1.3281 3.9375 0 7.1641 1.5625 9.6875 4.6875 2.5195 3.125 3.7812 7.1484 3.7812 12.062 0 4.918-1.2617 8.9375-3.7812 12.062-2.5234 3.125-5.75 4.6875-9.6875 4.6875-2.2188 0-4.1836-0.44531-5.8906-1.3281-1.7109-0.88281-3.2656-2.2539-4.6719-4.1094v4.6094h-10.188v-44.312h10.188z"/>
  </symbol>
  <symbol id="b" overflow="visible">
   <path d="m0.28125-42.516h11.031l11.266 31.375 11.25-31.375h11.031l-15.75 42.516h-13.078z"/>
  </symbol>
 </defs>
 <g>
  <path d="m353.5 554.17c-106.17 0-201.83-59.5-248.5-155.17-32.668-66.5-37.332-141.17-12.832-211.17s73.5-126 140-158.67c21-10.5 43.168-17.5 66.5-23.332 9.332-2.332 19.832 2.332 24.5 11.668 4.668 9.332 3.5 19.832-3.5 26.832-64.168 64.168-85.168 149.33-51.332 217 29.168 58.332 94.5 94.5 171.5 94.5 39.668 0 81.668-9.332 119-28 10.5-5.832 21-11.668 31.5-18.668 8.168-4.668 17.5-4.668 25.668 0 8.168 4.668 11.668 14 9.332 23.332-17.5 84-72.332 154-149.33 191.33-39.672 21.004-80.504 30.34-122.5 30.34zm-116.67-476c-49 28-85.164 71.164-102.66 124.83-19.832 58.332-16.332 121.33 11.668 176.17 39.668 79.332 119 129.5 207.67 129.5 35 0 70-8.168 101.5-23.332 47.832-23.332 85.168-61.832 107.33-108.5-39.668 17.5-81.668 25.668-123.67 25.668-94.5 0-176.17-46.668-212.33-120.17-31.504-63.004-26.836-137.67 10.496-204.17z"/>
  <path d="m466.67 126c-8.168 0-17.5-4.668-21-14-8.168-17.5-35-61.832-68.832-61.832-12.832 0-23.332-10.5-23.332-23.332 0-12.832 10.5-23.332 23.332-23.332 70 0 108.5 85.168 109.67 88.668 4.668 11.668 0 24.5-11.668 30.332-1.168 3.4961-4.668 3.4961-8.168 3.4961z"/>
  <path d="m466.67 126c-3.5 0-5.832-1.168-9.332-2.332-11.668-4.668-16.332-18.668-11.668-30.332 1.168-3.5 40.832-88.668 109.67-88.668 12.832 0 23.332 10.5 23.332 23.332s-10.5 23.332-23.332 23.332c-33.832 0-61.832 45.5-68.832 61.832-2.3359 8.168-10.504 12.836-19.836 12.836z"/>
  <path d="m512.17 292.83c-8.168 0-17.5-4.668-21-14-8.168-17.5-35-61.832-68.832-61.832-12.832 0-23.332-10.5-23.332-23.332s10.5-23.332 23.332-23.332c70 0 108.5 85.168 109.67 88.668 4.668 11.668 0 24.5-11.668 30.332-2.3359 3.4961-4.668 3.4961-8.168 3.4961z"/>
  <path d="m512.17 292.83c-3.5 0-5.832-1.168-9.332-2.332-11.668-4.668-16.332-18.668-11.668-30.332 1.168-3.5 40.832-88.668 109.67-88.668 12.832 0 23.332 10.5 23.332 23.332s-10.5 23.332-23.332 23.332c-33.832 0-61.832 45.5-68.832 61.832-2.3359 8.1719-11.672 12.836-19.836 12.836z"/>
  <use x="70" y="735" xlink:href="#e"/>
  <use x="220.503906" y="735" xlink:href="#a"/>
  <use x="287.953125" y="735" xlink:href="#d"/>
  <use x="350.015625" y="735" xlink:href="#c"/>
  <use x="450.105469" y="735" xlink:href="#b"/>
  <use x="569.394531" y="735" xlink:href="#a"/>
 </g>
</svg>
